# Blender 4.0.2
# www.blender.org
o Simple_Tree_06
v -2.143700 8.426800 -0.582601
v -1.520300 3.104900 -0.694400
v -1.672300 5.818500 0.453300
v -1.705500 8.281800 -1.659101
v -0.792800 0.076900 -1.164100
v -1.564600 -0.022600 0.022600
v -0.735700 8.266500 -2.052801
v -0.212100 12.924900 -1.525501
v 0.512500 -0.019700 -1.343200
v 0.631100 12.995000 -1.361101
v -1.467500 12.807400 -0.556301
v -1.451900 12.699700 0.659899
v -1.553900 20.868700 -5.468001
v -1.455700 14.536100 -0.971401
v -1.026300 22.305201 -4.957002
v -0.912500 17.866600 -4.288501
v -0.951100 15.788000 -0.603601
v -0.404800 15.913500 -0.297901
v -0.291800 20.024099 -5.704502
v -0.015400 26.250200 -8.122302
v -0.765100 26.542200 -7.497902
v -0.159200 21.659201 -4.573601
v -2.001700 29.886499 -9.109102
v -2.327100 30.662201 -8.521702
v -0.612600 27.434601 -8.456302
v -0.243500 29.039700 -8.003802
v -1.268500 29.896500 -7.974002
v -0.039000 26.514999 -6.704502
v 0.154500 28.479300 -11.610502
v -0.584600 28.665701 -10.405902
v 0.460400 28.044901 -8.652802
v 0.390900 29.199301 -8.602502
v -12.653500 28.832500 4.554698
v -12.273200 28.503599 5.038497
v -11.997400 29.243000 4.820698
v -0.757900 0.000300 1.315100
v 0.198300 -0.038700 1.610400
v -0.281600 8.894500 0.906499
v -0.417000 13.434900 1.534799
v 0.606900 4.752400 0.993700
v -6.947900 24.777300 3.112398
v -5.442800 20.411100 2.119099
v -4.991100 19.467199 2.870999
v -4.552300 19.983500 3.374299
v -4.866100 21.028601 1.724098
v -3.671700 20.028200 3.035099
v -4.117800 21.102501 2.219498
v -0.424300 16.348101 0.881999
v -0.323200 15.108500 1.585999
v 0.631400 18.235100 0.209299
v 0.904300 19.025700 1.650299
v -7.172400 25.024799 2.126598
v -7.333600 26.156799 3.342498
v -7.995500 28.294800 1.773598
v -8.275300 28.865000 2.595998
v -6.967600 26.817101 3.009898
v -6.051500 25.121500 2.259098
v -7.338300 28.605400 2.178098
v -7.842100 31.918100 6.984698
v -6.222200 24.979500 3.139898
v -6.910500 31.427299 6.355897
v 0.449300 7.402300 -1.559901
v 1.590700 -0.028600 0.016800
v 1.396100 3.784200 -0.122700
v 0.849000 8.400400 -0.178301
v 1.541100 14.330400 -0.509001
v 0.732900 17.533501 -3.627002
v 0.983800 15.989500 -0.748601
v 0.308900 21.601900 -5.567902
v 1.826700 14.834600 0.900099
v 2.884400 18.354799 0.624999
v 2.157900 20.012800 0.645899
v 0.618300 26.167101 -7.175102
v 1.091200 28.800100 -8.034302
v 0.880300 14.636900 1.674599
v 3.306700 18.620501 1.722099
v 4.495900 22.053400 1.752798
v 3.122400 20.966400 3.112898
v 3.552400 20.075300 2.893999
v 3.455800 22.582300 2.689998
v 5.447600 23.118200 3.690498
v 5.575900 26.867300 4.112598
v 5.122800 26.666599 5.381898
v 4.616900 26.804899 4.435698
v 5.638000 28.052601 6.102098
v 4.787200 28.466200 5.358798
v 5.988300 26.706100 4.935998
v 5.826700 28.511499 3.823198
v 5.620300 28.740299 5.136698
v 6.533700 27.982901 4.918198
v 8.058200 28.522301 6.912698
v -18.463800 34.269402 -3.442803
v -19.291201 34.019501 2.477897
v -20.612700 38.965199 -1.972803
v -18.687000 37.326000 -6.183803
v -18.181299 43.018799 -3.512103
v -19.404400 40.956799 0.742797
v -16.718000 31.113701 -3.689102
v -16.847401 30.716999 1.156598
v -16.571100 34.448299 -10.323003
v -18.401899 40.147900 -6.102203
v -16.556999 43.416901 -6.800403
v -17.289600 44.567902 0.717497
v -15.360200 28.841999 1.303998
v -14.932100 32.218800 -9.297703
v -14.631300 29.819000 -7.405703
v -15.239900 36.912899 -10.529303
v -14.227700 42.595001 -9.385603
v -15.318400 46.229900 -2.894104
v -13.582000 28.657101 -2.833702
v -11.767900 27.299700 0.146398
v -13.367000 33.400002 -11.756803
v -13.179500 37.634602 -12.318603
v -12.570400 39.674400 -11.507903
v -13.542800 45.275799 -7.249203
v -12.575500 47.115002 -3.271104
v -13.641900 47.152901 0.233796
v -11.198900 28.943199 -5.343903
v -10.956500 30.780399 -9.718902
v -11.009600 33.262501 -17.529701
v -12.899900 32.967400 -14.329003
v -12.647900 35.057201 -15.826803
v -11.706500 39.380199 -14.583903
v -9.768300 42.452301 -11.005302
v -9.370300 47.041302 -5.144703
v -9.586600 27.428499 -3.148302
v -10.343200 29.513899 -15.673802
v -9.149600 35.956501 -18.953201
v -9.886800 42.011398 -13.147202
v -7.215800 29.525999 -7.425303
v -8.167900 28.438900 -11.052002
v -6.675500 30.956497 -18.418503
v -8.759400 41.561199 -15.585803
v -6.040100 45.996700 -6.400903
v -8.026700 28.640398 -16.382902
v -6.114300 27.974897 -13.044002
v -5.873000 28.171301 -2.310302
v -4.782700 28.221901 0.267398
v -6.425800 35.967800 -19.410803
v -4.844800 39.148102 -18.283203
v -4.535500 42.131401 -16.069405
v -5.075700 44.166000 -13.111503
v -6.883100 43.758801 -9.200103
v -5.997200 46.668400 -0.201604
v -3.933400 46.135700 -3.162704
v -5.336400 28.544298 -16.349802
v -4.725300 28.351101 -10.008402
v -3.185200 31.066797 -17.630602
v -4.470700 32.495300 -18.773502
v -1.776400 29.157398 -12.677902
v -1.335900 31.209801 -4.063402
v -2.467100 31.038700 -5.791903
v -4.117600 31.628098 -22.322702
v -2.643100 29.604399 -19.584402
v -3.175200 35.104000 -19.023102
v -2.801800 44.214298 -11.504603
v -3.928300 43.672901 -7.921303
v -2.438800 44.321301 -5.358203
v -2.362400 29.478600 -8.992802
v -0.944200 28.982798 -21.417103
v -1.190400 31.425999 -16.435402
v -1.240600 31.471100 1.172398
v -1.732300 32.501499 -23.408802
v 0.249800 36.036900 -21.807602
v -1.441200 35.977001 -20.832302
v -1.078600 36.703400 -17.525402
v -1.085500 40.479500 -16.113504
v -1.939200 43.776501 -13.120502
v -0.296500 46.767101 -9.190703
v -1.173200 44.452599 0.762697
v 1.191300 28.468899 -15.012301
v -0.573900 27.748899 -11.320302
v 1.542400 31.747997 -23.064102
v 0.634000 29.207397 -19.507603
v 1.023600 30.835197 -17.069801
v 0.436400 29.414200 -4.888302
v 0.040500 32.903400 -0.957403
v 2.587400 30.472700 -2.549002
v 0.887900 36.230801 -18.059603
v 1.611300 43.557400 -15.818903
v -0.663300 43.904400 -2.350503
v 2.126800 46.791302 -4.531803
v -18.313101 25.942499 3.099598
v -21.867500 27.303900 5.905298
v -21.637199 28.804100 3.618398
v -17.253901 25.093399 7.982798
v -20.750200 26.257401 7.990298
v -19.594299 28.590599 11.212798
v -16.737301 27.675400 11.293198
v -14.567800 26.261700 4.709198
v -17.514601 27.169800 1.680198
v -12.208300 27.585600 8.261698
v -13.591000 27.370501 9.989099
v -11.268200 29.010300 5.202797
v -0.524500 25.938999 10.724298
v -2.080600 26.740299 7.465798
v 2.165600 26.095900 7.410398
v -1.785800 28.170502 15.124998
v 1.906700 26.862402 14.196398
v -22.207701 30.391100 9.275498
v -22.509501 32.501202 6.140997
v -20.695999 31.846800 10.719697
v -21.519600 33.114799 3.839598
v -21.160601 34.974400 7.449797
v -19.617599 35.443802 3.378297
v -17.105400 34.196701 11.094398
v -18.436501 36.682899 5.124997
v -19.354099 39.467400 2.947197
v -17.676300 30.648500 12.203299
v -17.743799 37.037701 5.938097
v -15.198000 45.000999 3.759897
v -14.399800 34.329201 7.768797
v -13.110600 29.994301 10.973898
v -13.915100 33.526100 9.289497
v -12.442200 38.873699 7.960597
v -14.548700 42.480900 5.950397
v -9.635900 27.743700 3.457298
v -12.114400 31.637501 10.211797
v -13.530200 35.728298 10.372997
v -11.832300 34.617401 12.796197
v -11.593800 38.680099 11.666698
v -10.321500 43.786098 5.993497
v -11.854100 46.148800 3.954196
v -10.833600 31.590900 7.815398
v -10.367900 32.006500 12.117497
v -9.452100 30.902599 10.121198
v -7.669500 42.778801 6.407697
v -9.166200 39.918900 8.117997
v -7.753100 31.061399 6.812098
v -8.073300 34.471001 14.199997
v -8.880200 37.514801 13.341397
v -9.270200 39.801998 10.413297
v -7.974800 46.323299 4.005397
v -4.265100 29.991301 4.039798
v -5.654400 29.011801 7.586998
v -7.468600 31.113001 10.723198
v -5.424400 34.949402 17.491398
v -6.973800 43.745602 10.832397
v -6.076500 42.197601 15.077897
v -6.161500 44.034401 5.187397
v -4.799400 30.859901 14.835398
v -5.463100 39.636799 16.894096
v -4.733000 45.860401 7.122897
v -3.083000 45.586300 14.966696
v -4.747600 44.147701 3.218697
v -1.995800 31.753302 18.404598
v -2.416600 35.092800 19.426397
v -0.551000 40.614300 19.812897
v -2.547700 43.223202 17.674196
v -1.684700 46.331200 4.044297
v -2.835700 46.947399 10.537896
v 0.902200 47.389702 4.443796
v -0.087400 48.094299 7.575696
v 0.437300 27.730600 4.621598
v 2.524800 29.735001 0.728198
v 2.068400 32.929100 19.724098
v 1.541400 37.150600 20.453598
v 2.350300 44.235901 18.731297
v 0.697900 47.220200 -0.483204
v 1.568600 48.401901 11.465296
v 7.298200 26.511801 -1.332002
v 8.775700 27.173401 -6.106402
v 11.778300 25.571699 -1.749602
v 15.232800 28.316200 -6.236302
v 16.934000 26.416000 -1.342202
v 14.605900 26.226900 2.941898
v 4.371600 28.061197 -15.623802
v 2.689700 27.484301 -9.042202
v 2.664000 31.516197 -20.784302
v 2.579600 34.173500 -21.042702
v 4.313900 41.477798 -17.777103
v 1.838400 46.388100 -13.237204
v 4.705500 28.959000 -4.446302
v 2.087500 31.596699 -17.529501
v 2.733300 34.103600 -18.362202
v 6.595400 38.853298 -18.359505
v 4.756800 45.072899 -15.548804
v 2.463500 47.690800 -10.064704
v 5.347300 47.313801 -11.729604
v 3.804100 47.510700 -5.723504
v 4.511100 51.074699 -0.518004
v 7.267000 28.274799 -11.287302
v 7.295900 28.433001 -7.261703
v 5.836600 34.577599 -18.280401
v 7.544500 42.126202 -17.153704
v 7.624300 50.708900 -5.499704
v 8.764900 30.063498 -13.876502
v 7.404300 32.150299 -16.482302
v 8.724600 44.518799 -14.472904
v 7.066000 47.488800 -8.457204
v 9.901900 53.622299 -0.099104
v 9.732700 36.012600 -17.654202
v 8.714000 45.498299 -12.334204
v 11.304600 47.175499 -9.925104
v 16.865200 31.790800 -9.169103
v 11.587400 31.231400 -9.501801
v 10.953500 32.784401 -14.222503
v 11.056500 40.632999 -15.341403
v 10.954700 43.831001 -12.828103
v 12.110500 48.640800 -8.950404
v 12.450200 52.440399 -4.290604
v 12.684500 33.903999 -11.660703
v 13.548200 36.818001 -12.403303
v 13.019300 40.660099 -12.141203
v 14.098000 44.545700 -11.175804
v 14.498100 34.898899 -12.049103
v 16.316799 49.849899 -6.275704
v 15.300300 52.715199 -0.392604
v 16.285999 41.687901 -11.534203
v 16.310499 45.484798 -10.332704
v 19.395300 29.698400 -5.105803
v 18.999701 36.183998 -10.392603
v 19.900400 50.469101 -0.915704
v 21.790899 33.012100 -6.055402
v 20.558500 41.932301 -9.161803
v 21.388100 29.605400 -1.320302
v 22.608601 37.289200 -6.891303
v 21.252399 46.950199 -4.898503
v 24.572100 34.912899 -1.580703
v 24.230101 33.081799 3.718998
v 23.108200 42.363899 -5.342603
v 23.608400 46.371498 -0.678504
v 22.905100 49.284302 4.021096
v 25.440399 38.912998 -0.752103
v 24.203501 42.704399 -2.731503
v 26.561399 43.064098 0.059797
v 27.087000 41.722698 0.742897
v 4.336000 26.156500 11.125898
v 3.702100 28.242001 4.111598
v 6.506600 26.999100 7.932298
v 5.763800 28.011002 14.984398
v 7.634300 27.611799 6.709598
v 9.747900 28.933300 12.170698
v 12.276400 27.448601 7.818498
v 13.037900 27.310102 15.011298
v 14.864300 27.056002 12.901198
v 18.684401 27.935001 14.891198
v 19.847700 28.448700 4.230597
v 16.887400 28.961700 9.210398
v 2.027500 29.273201 17.453197
v 4.253700 41.016201 20.134497
v 7.835900 48.466801 11.086796
v 5.453300 31.217503 18.159298
v 4.192100 35.845200 19.865898
v 4.947100 47.340000 15.789896
v 4.044900 48.218399 7.557896
v 6.765000 51.631901 4.160796
v 7.035000 37.009499 19.947098
v 7.212200 44.208900 18.061596
v 9.802300 51.450401 8.711296
v 8.841000 30.448702 15.658098
v 9.439900 35.525600 18.087797
v 11.198000 43.403099 16.905497
v 10.170800 29.082399 10.316998
v 9.280400 34.384998 18.039497
v 9.025200 40.322300 18.258196
v 8.558100 46.551701 15.432296
v 9.465600 46.791302 13.372497
v 10.672100 30.893301 18.267097
v 12.038500 40.090599 16.559095
v 12.535200 48.701900 12.662896
v 12.507400 53.234600 4.643196
v 13.095000 28.698702 17.710697
v 12.293000 31.904202 19.726198
v 14.875200 36.407200 20.301098
v 14.303800 40.249802 17.845497
v 12.374600 43.494999 15.700397
v 12.637600 46.566399 13.627196
v 14.495700 41.282902 15.649397
v 14.537300 44.337502 15.673196
v 15.337600 51.891800 9.005197
v 16.975599 28.327702 17.486399
v 16.882799 30.728601 19.973099
v 17.893000 40.473400 17.259796
v 17.164900 41.351700 14.178097
v 17.448500 44.730999 12.824596
v 18.791599 47.323399 11.432996
v 17.709600 52.511002 4.203296
v 19.155800 28.584900 12.142899
v 19.640301 35.348202 19.224699
v 19.970100 38.183998 17.470896
v 19.957899 50.082699 8.042896
v 20.906099 32.047199 9.783197
v 20.683901 31.047102 17.069698
v 18.834000 40.721901 13.538198
v 21.648701 37.010502 15.486797
v 21.261000 30.815401 14.729198
v 22.232401 35.310699 13.211497
v 21.419800 36.917400 11.069098
v 23.047199 46.432598 9.292196
v 24.380600 36.487000 7.165397
v 24.483000 41.272499 8.756397
v 25.520100 44.966202 5.356497
v 25.806299 37.481602 4.451997
v 26.560900 42.126598 2.351297
vn -0.9997 0.0226 -0.0003
vn -0.9452 -0.0800 -0.3167
vn -0.8053 -0.0296 0.5921
vn -0.7060 0.0223 -0.7078
vn -0.5290 -0.1205 -0.8400
vn -0.9960 -0.0879 0.0180
vn -0.0240 0.0178 -0.9996
vn -0.1868 -0.1987 -0.9621
vn 0.4106 -0.0610 -0.9098
vn 0.5319 -0.1459 -0.8341
vn -0.8935 -0.1088 -0.4357
vn -0.8563 -0.2035 0.4746
vn -0.9204 -0.1030 -0.3771
vn -0.8987 -0.0045 -0.4385
vn -0.6099 0.4009 0.6835
vn -0.4750 -0.4774 -0.7392
vn -0.6133 0.7244 -0.3150
vn -0.1568 0.9810 -0.1140
vn 0.1875 -0.3924 -0.9005
vn 0.0077 -0.6888 -0.7249
vn -0.9802 -0.1955 0.0314
vn 0.5053 0.4855 0.7134
vn -0.3660 0.1760 -0.9138
vn -0.5609 0.8275 -0.0246
vn -0.8996 0.2846 -0.3312
vn 0.4236 0.9005 0.0979
vn 0.2907 0.7345 0.6132
vn 0.0070 0.3351 0.9422
vn 0.1564 0.2254 -0.9616
vn -0.7001 0.6750 -0.2330
vn -0.7001 0.6749 -0.2330
vn 0.7001 0.3524 -0.6210
vn 0.0069 0.7713 -0.6364
vn -0.9340 0.2142 -0.2861
vn -0.4446 -0.3666 0.8173
vn 0.0645 0.9689 0.2389
vn -0.5783 0.0111 0.8158
vn 0.2801 0.0663 0.9577
vn 0.2934 -0.0964 0.9511
vn -0.1620 -0.1946 0.9674
vn 0.6368 0.0906 0.7657
vn -0.5173 -0.5095 0.6877
vn -0.8762 -0.2718 -0.3980
vn -0.7542 -0.4600 0.4687
vn -0.1056 -0.1447 0.9838
vn -0.0420 0.1921 -0.9805
vn 0.6486 0.2910 0.7033
vn 0.7761 0.5505 -0.3076
vn -0.1051 0.9147 0.3903
vn 0.0836 0.0255 0.9962
vn -0.6200 0.5158 -0.5913
vn -0.8343 0.4737 0.2820
vn -0.7753 -0.3623 -0.5174
vn -0.8393 0.1257 0.5290
vn -0.4648 0.2213 -0.8573
vn -0.5852 0.7370 0.3381
vn 0.5013 0.8653 -0.0029
vn 0.8794 0.3293 -0.3439
vn -0.4648 0.2212 -0.8573
vn 0.6557 0.7373 -0.1628
vn -0.3601 0.7421 0.5653
vn 0.6557 0.7372 -0.1628
vn 0.6502 -0.0048 0.7597
vn 0.5012 0.8653 -0.0029
vn 0.7123 0.6875 0.1413
vn 0.7050 0.0103 -0.7091
vn 0.9981 0.0369 0.0494
vn 0.9979 0.0467 0.0453
vn 0.9682 -0.0287 0.2485
vn 0.9252 -0.1287 -0.3570
vn 0.8109 -0.2219 -0.5415
vn 0.7494 0.5645 -0.3461
vn 0.9893 -0.0360 -0.1411
vn 0.8802 -0.3478 0.3230
vn 0.7984 -0.1354 -0.5867
vn -0.3070 0.5562 -0.7723
vn 0.9847 -0.0762 0.1568
vn 0.8737 0.4600 0.1585
vn 0.2757 -0.2310 0.9331
vn 0.9262 -0.3759 0.0282
vn 0.5162 0.2262 -0.8261
vn -0.4886 -0.0062 0.8725
vn 0.3659 -0.4318 0.8244
vn -0.8071 0.5220 -0.2758
vn 0.8912 -0.3272 0.3141
vn 0.3999 -0.0134 -0.9165
vn -0.4345 -0.3096 0.8458
vn -0.9405 0.2196 -0.2593
vn -0.3171 0.3483 0.8821
vn -0.8032 0.5155 0.2984
vn 0.8274 -0.5558 0.0803
vn 0.1723 0.5503 -0.8170
vn 0.1675 0.9689 0.1819
vn 0.8275 -0.5558 0.0803
vn 0.8589 0.3248 -0.3959
vn 0.7604 0.3452 0.5501
vn 0.7604 0.3451 0.5501
vn 0.7604 0.3451 0.5502
vn 0.8589 0.3248 -0.3958
vn -0.3172 0.3483 0.8821
vn -0.8896 -0.4127 -0.1957
vn -0.8397 -0.1383 -0.5251
vn -0.9900 0.0910 -0.1079
vn -0.8939 -0.0747 -0.4419
vn -0.8173 0.5398 -0.2019
vn -0.8974 0.3990 0.1882
vn -0.7747 -0.6099 -0.1668
vn -0.7297 -0.3976 -0.5562
vn -0.7203 -0.1983 -0.6647
vn -0.8184 0.2467 -0.5190
vn -0.6784 0.5238 -0.5152
vn -0.7365 0.6514 0.1824
vn -0.1939 -0.8395 -0.5076
vn -0.5419 -0.6480 -0.5351
vn -0.4906 -0.7653 -0.4167
vn -0.6404 0.1973 -0.7422
vn -0.4750 0.4635 -0.7480
vn -0.5347 0.8273 -0.1724
vn -0.4114 -0.8875 -0.2076
vn -0.1938 -0.9805 0.0326
vn -0.7411 -0.4726 -0.4770
vn -0.8435 0.2492 -0.4757
vn -0.6618 0.4706 -0.5835
vn -0.3010 0.7839 -0.5431
vn -0.1695 0.9697 -0.1758
vn -0.2703 0.9532 0.1354
vn -0.1346 -0.9153 -0.3797
vn -0.4369 -0.8765 -0.2023
vn -0.6178 -0.2424 -0.7481
vn -0.9099 -0.3286 -0.2532
vn -0.8658 0.0679 -0.4957
vn -0.7436 0.4773 -0.4683
vn -0.3268 0.8296 -0.4527
vn 0.0264 0.9499 -0.3113
vn -0.0190 -0.9691 -0.2460
vn -0.6208 -0.6978 -0.3572
vn -0.4077 0.1580 -0.8993
vn -0.5586 0.7904 -0.2512
vn 0.0027 -1.0000 -0.0090
vn -0.3547 -0.9178 0.1782
vn -0.0989 -0.4441 -0.8905
vn -0.4076 0.6831 -0.6060
vn 0.2546 0.8505 -0.4602
vn -0.2699 -0.8246 -0.4972
vn 0.0122 -0.9996 -0.0269
vn 0.3368 -0.9205 -0.1981
vn 0.4294 -0.8985 0.0911
vn -0.0423 0.1062 -0.9934
vn 0.0759 0.4567 -0.8864
vn 0.0504 0.7054 -0.7070
vn -0.1274 0.9500 -0.2852
vn -0.0367 0.9270 -0.3733
vn 0.2630 0.9512 0.1615
vn 0.4355 0.8920 -0.1216
vn 0.2166 -0.8485 -0.4829
vn 0.1388 -0.9588 0.2478
vn -0.0421 -0.9776 -0.2060
vn -0.5161 -0.3094 -0.7987
vn -0.1329 -0.9499 -0.2829
vn 0.0590 -0.9588 0.2779
vn -0.0096 -0.9868 0.1616
vn -0.7936 -0.1575 -0.5877
vn -0.4954 -0.8450 0.2015
vn -0.2501 0.5428 -0.8017
vn -0.2618 0.9491 -0.1754
vn -0.0947 0.9733 -0.2093
vn -0.0063 0.9996 -0.0264
vn -0.1235 -0.9423 0.3111
vn -0.0266 -0.9105 -0.4127
vn -0.0398 -0.9931 -0.1100
vn 0.1733 -0.9101 -0.3763
vn -0.2345 0.0849 -0.9684
vn 0.1585 0.7981 -0.5813
vn -0.4181 0.8508 -0.3182
vn 0.0874 0.4730 -0.8767
vn -0.0450 0.4790 -0.8766
vn -0.2046 0.8132 -0.5448
vn -0.4866 0.8725 -0.0446
vn -0.3167 0.9426 -0.1060
vn -0.3425 -0.7686 -0.5402
vn -0.4078 -0.9116 -0.0518
vn 0.5175 -0.2309 -0.8239
vn 0.3877 -0.9058 0.1711
vn 0.1210 -0.9658 -0.2295
vn -0.3405 -0.8216 0.4572
vn -0.0325 -0.9976 -0.0613
vn -0.5427 -0.8164 0.1973
vn 0.0327 0.6415 -0.7664
vn -0.3490 0.5370 -0.7680
vn -0.3033 0.9511 -0.0590
vn 0.0597 0.7023 0.7093
vn -0.2134 -0.8511 -0.4797
vn -0.8171 -0.5639 -0.1199
vn -0.7633 -0.2300 -0.6037
vn -0.0057 -0.9739 0.2268
vn -0.5607 -0.7947 0.2324
vn -0.4406 -0.4068 0.8003
vn 0.0377 -0.5636 0.8252
vn 0.4539 -0.8333 -0.3156
vn -0.0878 -0.5054 -0.8584
vn 0.7461 -0.6208 0.2406
vn 0.4957 -0.6345 0.5931
vn 0.4226 -0.8572 0.2942
vn -0.2835 -0.9497 0.1334
vn -0.3727 -0.8924 -0.2544
vn 0.0510 -0.9562 -0.2882
vn -0.4405 -0.7656 0.4688
vn -0.0067 -0.8957 0.4445
vn -0.8966 -0.0583 0.4391
vn -0.9713 0.2289 -0.0652
vn -0.5969 0.2761 0.7533
vn -0.7785 0.3158 -0.5424
vn -0.6587 0.7150 0.2343
vn -0.9615 0.2743 0.0161
vn 0.0537 0.6554 0.7534
vn -0.7793 0.4844 0.3977
vn -0.8808 0.2688 0.3899
vn -0.0639 0.0350 0.9973
vn -0.5777 0.4631 0.6722
vn -0.5062 0.6645 0.5498
vn -0.3325 0.6822 0.6512
vn 0.5695 -0.0865 0.8175
vn -0.2635 0.4151 0.8708
vn -0.5053 0.5478 0.6668
vn -0.4059 0.4335 0.8045
vn 0.0421 -0.9219 0.3850
vn 0.0905 -0.4986 0.8621
vn -0.9000 0.1509 0.4088
vn -0.6077 -0.1056 0.7871
vn -0.5284 0.6330 0.5658
vn -0.0422 0.5171 0.8549
vn -0.1540 0.8092 0.5670
vn 0.3857 -0.8481 0.3632
vn -0.2698 -0.7261 0.6324
vn -0.2698 -0.7261 0.6325
vn -0.1554 -0.9876 0.0242
vn -0.4537 0.7246 0.5188
vn -0.5622 0.7566 0.3339
vn -0.2237 -0.9338 0.2791
vn -0.5840 -0.2967 0.7556
vn -0.6436 0.2689 0.7166
vn -0.6471 0.7164 0.2609
vn 0.2222 0.8319 0.5085
vn -0.0041 -0.9958 -0.0912
vn -0.6008 -0.7932 -0.0991
vn -0.3624 -0.8782 0.3121
vn -0.6540 -0.1901 0.7322
vn -0.7628 0.6204 0.1825
vn -0.7364 0.4394 0.5144
vn -0.2115 0.9449 0.2498
vn -0.6361 -0.6172 0.4630
vn -0.6526 0.1980 0.7314
vn -0.5631 0.8141 -0.1421
vn -0.4665 0.7573 0.4571
vn 0.0616 0.9948 0.0814
vn -0.3839 -0.4884 0.7837
vn -0.3924 -0.1225 0.9116
vn -0.3052 0.2404 0.9214
vn -0.4527 0.4970 0.7403
vn -0.2445 0.6985 -0.6726
vn -0.4642 0.8773 0.1219
vn -0.4716 0.8743 -0.1146
vn -0.2374 0.9625 -0.1315
vn -0.1552 -0.8323 -0.5322
vn -0.5106 -0.7908 -0.3376
vn 0.0325 -0.3439 0.9385
vn -0.0415 -0.0425 0.9982
vn -0.1016 0.5847 0.8049
vn -0.7692 0.6103 -0.1895
vn -0.1624 0.9735 0.1607
vn -0.3583 -0.9317 -0.0593
vn -0.1429 -0.8539 -0.5003
vn -0.0136 -0.9945 -0.1035
vn 0.2352 -0.7817 -0.5776
vn 0.3661 -0.9163 -0.1622
vn 0.1332 -0.9729 0.1893
vn 0.1479 -0.8070 -0.5717
vn -0.0388 -0.9890 0.1428
vn 0.9213 -0.3611 -0.1446
vn 0.8285 0.4083 -0.3831
vn -0.1094 0.3568 -0.9278
vn -0.2998 0.8114 -0.5018
vn -0.3422 -0.9365 0.0762
vn 0.5318 -0.6855 -0.4972
vn 0.6176 -0.0208 -0.7862
vn 0.1776 0.1501 -0.9726
vn 0.0257 0.7125 -0.7012
vn -0.1557 0.9811 -0.1150
vn 0.1588 0.9358 -0.3148
vn -0.4281 0.8820 -0.1970
vn -0.5685 0.8125 -0.1292
vn 0.4025 -0.9107 -0.0931
vn 0.0505 -0.9758 -0.2126
vn 0.1604 -0.2409 -0.9572
vn 0.3403 0.4231 -0.8397
vn -0.3529 0.7790 -0.5182
vn 0.5893 -0.6752 -0.4437
vn 0.4252 -0.4779 -0.7686
vn 0.4471 0.6924 -0.5662
vn -0.1229 0.8833 -0.4524
vn -0.1706 0.9817 -0.0841
vn 0.5469 -0.1293 -0.8272
vn 0.3147 0.8203 -0.4775
vn 0.0183 0.6564 -0.7542
vn 0.3483 -0.5895 -0.7288
vn 0.3828 -0.7648 -0.5181
vn 0.7162 -0.4838 -0.5030
vn 0.6919 0.2897 -0.6614
vn 0.5103 0.5055 -0.6957
vn 0.0184 0.6724 -0.7399
vn 0.0835 0.8950 -0.4382
vn 0.5518 -0.5549 -0.6226
vn 0.6659 -0.0126 -0.7459
vn 0.5297 0.1802 -0.8288
vn 0.2257 0.3855 -0.8947
vn 0.2087 -0.2917 -0.9335
vn 0.3851 0.7379 -0.5542
vn 0.2830 0.9409 -0.1859
vn 0.3146 0.1483 -0.9376
vn 0.3591 0.4740 -0.8040
vn 0.5377 -0.6937 -0.4792
vn 0.5420 -0.2004 -0.8161
vn 0.5528 0.7821 -0.2875
vn 0.7309 -0.4434 -0.5188
vn 0.6551 0.2141 -0.7246
vn 0.7108 -0.6827 -0.1695
vn 0.8223 -0.1035 -0.5595
vn 0.6812 0.5418 -0.4924
vn 0.9135 -0.3216 -0.2491
vn 0.8544 -0.5032 0.1295
vn 0.8497 0.2177 -0.4802
vn 0.7898 0.5325 -0.3043
vn 0.7200 0.6935 0.0263
vn 0.9394 -0.1448 -0.3106
vn 0.8389 0.2232 -0.4963
vn 0.8682 0.4252 -0.2557
vn 0.9889 -0.1433 -0.0392
vn 0.2296 -0.9640 0.1340
vn -0.1017 -0.9547 -0.2798
vn 0.3256 -0.9337 -0.1492
vn 0.3142 -0.8022 0.5078
vn 0.0532 -0.9974 0.0480
vn 0.0187 -0.9935 0.1118
vn 0.0239 -0.9155 0.4016
vn -0.2663 -0.9414 0.2072
vn 0.0086 -0.9866 -0.1632
vn 0.4791 -0.8651 0.1486
vn 0.5546 -0.8076 0.2005
vn 0.3350 -0.9422 -0.0033
vn -0.0018 -0.6786 0.7345
vn 0.1223 0.2299 0.9655
vn -0.1626 0.8773 0.4516
vn 0.2893 -0.4890 0.8229
vn 0.1846 -0.1947 0.9633
vn 0.0228 0.8472 0.5308
vn -0.2886 0.9475 0.1379
vn -0.4493 0.8583 0.2479
vn 0.3217 -0.1837 0.9289
vn 0.2474 0.5013 0.8291
vn -0.2903 0.8394 0.4595
vn -0.0571 -0.7673 0.6388
vn 0.0408 0.0001 0.9992
vn 0.5246 0.3711 0.7662
vn 0.0804 -0.9918 0.0994
vn -0.1925 -0.1281 0.9729
vn 0.4548 0.0950 0.8855
vn 0.3727 0.7744 0.5112
vn 0.2078 0.7785 0.5922
vn -0.5756 -0.4758 0.6650
vn 0.1091 0.3804 0.9184
vn 0.0080 0.6287 0.7776
vn -0.0354 0.9848 0.1698
vn -0.2921 -0.7519 0.5910
vn -0.3326 -0.2395 0.9122
vn -0.0663 0.2731 0.9597
vn -0.1719 0.7152 0.6775
vn 0.2814 0.4095 0.8678
vn -0.2375 0.4495 0.8611
vn 0.1643 0.5655 0.8082
vn 0.2549 0.3658 0.8951
vn 0.1765 0.8444 0.5058
vn 0.2377 -0.8231 0.5158
vn 0.2184 -0.4068 0.8870
vn 0.3708 0.7597 0.5342
vn 0.4739 0.6196 0.6257
vn 0.4346 0.3586 0.8262
vn 0.3862 0.4639 0.7973
vn 0.3591 0.9308 0.0681
vn 0.5742 -0.7739 -0.2672
vn 0.5902 0.1166 0.7988
vn 0.6711 0.5042 0.5434
vn 0.4991 0.7414 0.4486
vn 0.8504 -0.5177 0.0938
vn 0.7887 -0.3760 0.4863
vn 0.6743 0.4822 0.5592
vn 0.9179 0.3351 0.2124
vn 0.9043 -0.4185 0.0838
vn 0.9958 0.0880 -0.0247
vn 0.9237 0.0549 0.3791
vn 0.6869 0.4143 0.5971
vn 0.8413 -0.2820 0.4613
vn 0.8255 -0.0023 0.5644
vn 0.9239 0.3358 0.1835
vn 0.9627 -0.2127 0.1672
vn 0.9808 0.1234 0.1510
vt 0.796900 0.389000
vt 0.820200 0.384000
vt 0.809500 0.391400
vt 0.796700 0.383700
vt 0.834100 0.378400
vt 0.835400 0.384600
vt 0.880600 0.349500
vt 0.880100 0.354300
vt 0.842900 0.348500
vt 0.687700 0.345800
vt 0.692000 0.347800
vt 0.677800 0.364900
vt 0.841700 0.354400
vt 0.674000 0.363800
vt 0.777000 0.390900
vt 0.691000 0.341800
vt 0.666500 0.335600
vt 0.692200 0.334900
vt 0.952100 0.367900
vt 0.916700 0.368500
vt 0.956000 0.361600
vt 0.684400 0.367700
vt 0.809600 0.349500
vt 0.835100 0.344100
vt 0.838400 0.350600
vt 0.698900 0.348000
vt 0.708000 0.373400
vt 0.950600 0.386000
vt 0.913100 0.388600
vt 0.912500 0.385600
vt 0.722100 0.385600
vt 0.920300 0.363200
vt 0.795400 0.354300
vt 0.797600 0.347700
vt 0.767300 0.351100
vt 0.978400 0.359100
vt 0.834800 0.340200
vt 0.946700 0.382100
vt 0.996000 0.361700
vt 0.999000 0.358000
vt 0.767700 0.355700
vt 0.982900 0.363000
vt 0.994100 0.384700
vt 0.984900 0.377000
vt 0.994600 0.380100
vt 0.986800 0.368300
vt 0.987900 0.381200
vt 0.971600 0.379800
vt 0.976100 0.354700
vt 0.749400 0.345100
vt 0.751900 0.351100
vt 0.761800 0.354800
vt 0.977900 0.359600
vt 0.980600 0.370900
vt 0.981500 0.374600
vt 0.771000 0.343500
vt 0.771000 0.343400
vt 0.771100 0.343400
vt 0.939500 0.337600
vt 0.907800 0.344200
vt 0.926500 0.334300
vt 0.836700 0.391500
vt 0.760900 0.357300
vt 0.759400 0.361600
vt 0.722600 0.343800
vt 0.738100 0.342700
vt 0.926700 0.347000
vt 0.904600 0.350700
vt 0.738300 0.355000
vt 0.768700 0.339900
vt 0.742000 0.339100
vt 0.737300 0.333500
vt 0.870800 0.336500
vt 0.869000 0.339800
vt 0.760600 0.356300
vt 0.804100 0.354400
vt 0.804400 0.359700
vt 0.869400 0.343900
vt 0.765500 0.362500
vt 0.765100 0.366000
vt 0.803600 0.364700
vt 0.764100 0.373600
vt 0.730000 0.359900
vt 0.770700 0.368500
vt 0.897200 0.353700
vt 0.727500 0.351800
vt 0.722600 0.366500
vt 0.751200 0.381400
vt 0.763200 0.383200
vt 0.759600 0.387900
vt 0.745500 0.386400
vt 0.763000 0.393600
vt 0.769000 0.345700
vt 0.775100 0.342800
vt 0.832100 0.357000
vt 0.827900 0.353900
vt 0.832900 0.356800
vt 0.837200 0.353100
vt 0.837200 0.357800
vt 0.828400 0.361300
vt 0.832800 0.357100
vt 0.808100 0.342500
vt 0.808100 0.336400
vt 0.845200 0.333500
vt 0.845000 0.336900
vt 0.776800 0.346400
vt 0.795900 0.369400
vt 0.794700 0.369900
vt 0.801900 0.364900
vt 0.793100 0.372400
vt 0.793300 0.370000
vt 0.742900 0.344300
vt 0.875200 0.359400
vt 0.683500 0.340100
vt 0.840300 0.362200
vt 0.838900 0.383100
vt 0.865300 0.360300
vt 0.854200 0.374600
vt 0.872400 0.364100
vt 0.969400 0.351100
vt 0.991500 0.335500
vt 0.998900 0.338500
vt 0.811700 0.341100
vt 0.913600 0.378700
vt 0.949200 0.377400
vt 0.789600 0.379400
vt 0.774700 0.383500
vt 0.769000 0.378300
vt 0.963900 0.346900
vt 0.809500 0.373600
vt 0.812700 0.381300
vt 0.666600 0.367700
vt 0.900300 0.372700
vt 0.898200 0.366400
vt 0.909900 0.366900
vt 0.802000 0.370700
vt 0.950200 0.356600
vt 0.965300 0.358000
vt 0.920100 0.370200
vt 0.744800 0.377600
vt 0.771500 0.373900
vt 0.747500 0.373100
vt 0.970800 0.375800
vt 0.726500 0.382200
vt 0.736600 0.373000
vt 0.980200 0.375000
vt 0.727300 0.375800
vt 0.878400 0.368800
vt 0.860900 0.377600
vt 0.900700 0.358900
vt 0.931500 0.353200
vt 0.843700 0.391500
vt 0.902000 0.364500
vt 0.945900 0.353200
vt 0.933700 0.376200
vt 0.872700 0.375200
vt 0.877300 0.376300
vt 0.740300 0.379700
vt 0.937400 0.351500
vt 0.914800 0.376600
vt 0.731100 0.390700
vt 0.724900 0.385800
vt 0.936000 0.369800
vt 0.931800 0.362100
vt 0.921700 0.357800
vt 0.958900 0.373100
vt 0.846800 0.390300
vt 0.701000 0.389400
vt 0.957400 0.368600
vt 0.702900 0.384700
vt 0.693400 0.389800
vt 0.695400 0.385100
vt 0.865000 0.388100
vt 0.848300 0.394500
vt 0.967000 0.370800
vt 0.694100 0.377500
vt 0.692000 0.383800
vt 0.905300 0.363600
vt 0.960600 0.377400
vt 0.966400 0.376600
vt 0.844500 0.399600
vt 0.843100 0.395700
vt 0.971000 0.374700
vt 0.840900 0.393400
vt 0.838800 0.398700
vt 0.959600 0.463400
vt 0.979100 0.456800
vt 0.969300 0.476300
vt 0.954700 0.475700
vt 0.967200 0.491000
vt 0.978700 0.481200
vt 0.953400 0.452600
vt 0.969000 0.444800
vt 0.939700 0.471300
vt 0.957200 0.484300
vt 0.956700 0.495800
vt 0.981800 0.495000
vt 0.822200 0.428200
vt 0.824600 0.443600
vt 0.813000 0.427000
vt 0.826700 0.461300
vt 0.819600 0.455400
vt 0.935900 0.463200
vt 0.938100 0.480400
vt 0.945400 0.497600
vt 0.969900 0.505300
vt 0.811700 0.443600
vt 0.801600 0.436800
vt 0.927800 0.470600
vt 0.929600 0.485200
vt 0.932900 0.493000
vt 0.953100 0.507000
vt 0.783200 0.590400
vt 0.795200 0.581800
vt 0.789800 0.597200
vt 0.809600 0.586400
vt 0.818600 0.578500
vt 0.823100 0.592300
vt 0.778300 0.601600
vt 0.808000 0.454300
vt 0.814800 0.468100
vt 0.827700 0.471000
vt 0.907400 0.476400
vt 0.918900 0.471700
vt 0.916600 0.479700
vt 0.921900 0.493000
vt 0.932400 0.506900
vt 0.778800 0.579300
vt 0.799500 0.449000
vt 0.828800 0.490400
vt 0.817900 0.485800
vt 0.828300 0.478900
vt 0.904200 0.487300
vt 0.925300 0.504400
vt 0.798900 0.466500
vt 0.806500 0.477500
vt 0.816300 0.499100
vt 0.915900 0.504300
vt 0.795800 0.560800
vt 0.773600 0.568300
vt 0.812700 0.490100
vt 0.803700 0.485500
vt 0.787700 0.452500
vt 0.781500 0.446000
vt 0.890500 0.475500
vt 0.896200 0.490700
vt 0.897600 0.502900
vt 0.854100 0.417300
vt 0.845600 0.425500
vt 0.843700 0.408800
vt 0.859800 0.407700
vt 0.845000 0.400300
vt 0.783200 0.560100
vt 0.800500 0.555000
vt 0.786300 0.545600
vt 0.760200 0.584000
vt 0.761700 0.572200
vt 0.807100 0.494500
vt 0.795400 0.479300
vt 0.805600 0.506300
vt 0.814100 0.507500
vt 0.885900 0.483400
vt 0.791000 0.492900
vt 0.774800 0.464500
vt 0.781200 0.468500
vt 0.816000 0.520500
vt 0.806200 0.515100
vt 0.886000 0.493400
vt 0.776600 0.544800
vt 0.771800 0.557100
vt 0.761500 0.561200
vt 0.785800 0.479700
vt 0.804400 0.521200
vt 0.797100 0.507000
vt 0.766800 0.451000
vt 0.812200 0.529000
vt 0.874100 0.503600
vt 0.868000 0.490100
vt 0.873500 0.482400
vt 0.879300 0.499600
vt 0.851400 0.439500
vt 0.841000 0.439100
vt 0.860800 0.428500
vt 0.867000 0.414500
vt 0.778700 0.538200
vt 0.762300 0.543800
vt 0.745100 0.574200
vt 0.784000 0.504300
vt 0.782500 0.490900
vt 0.801200 0.531400
vt 0.798800 0.519200
vt 0.791300 0.513200
vt 0.770700 0.472900
vt 0.766300 0.459100
vt 0.761300 0.467100
vt 0.855300 0.448000
vt 0.840800 0.447500
vt 0.841300 0.454000
vt 0.874100 0.426200
vt 0.749800 0.564600
vt 0.747900 0.550800
vt 0.817500 0.412600
vt 0.827300 0.403800
vt 0.830000 0.412000
vt 0.810300 0.400700
vt 0.987300 0.421800
vt 0.982200 0.429300
vt 0.982200 0.409900
vt 0.958800 0.571000
vt 0.971100 0.576300
vt 0.965400 0.586800
vt 0.954400 0.579500
vt 0.806300 0.413600
vt 0.817700 0.418500
vt 0.794500 0.407100
vt 0.950700 0.588500
vt 0.949600 0.595500
vt 0.792200 0.419500
vt 0.744300 0.422700
vt 0.753600 0.429300
vt 0.742000 0.435600
vt 0.741800 0.407200
vt 0.732800 0.416600
vt 0.997600 0.434200
vt 0.977300 0.437600
vt 0.990300 0.444100
vt 0.857000 0.645200
vt 0.850700 0.657100
vt 0.847900 0.645500
vt 0.984600 0.450000
vt 0.998000 0.451800
vt 0.847300 0.629600
vt 0.865600 0.659400
vt 0.984000 0.460900
vt 0.834600 0.643300
vt 0.991900 0.464900
vt 0.985300 0.475100
vt 0.835400 0.430100
vt 0.840100 0.654700
vt 0.948800 0.571000
vt 0.835500 0.620500
vt 0.831300 0.622600
vt 0.834200 0.608100
vt 0.814400 0.599800
vt 0.822200 0.637400
vt 0.942600 0.585300
vt 0.824300 0.659100
vt 0.821400 0.644500
vt 0.808800 0.625500
vt 0.813300 0.610200
vt 0.790700 0.429300
vt 0.936500 0.588200
vt 0.818800 0.654800
vt 0.812500 0.640600
vt 0.805800 0.649500
vt 0.800800 0.637100
vt 0.799200 0.608400
vt 0.803600 0.598500
vt 0.782300 0.410200
vt 0.935500 0.597200
vt 0.928900 0.585100
vt 0.928200 0.592200
vt 0.932500 0.575600
vt 0.790400 0.612900
vt 0.796800 0.623100
vt 0.775400 0.419700
vt 0.918800 0.576600
vt 0.793200 0.654800
vt 0.792000 0.643500
vt 0.793800 0.630200
vt 0.791200 0.598000
vt 0.755700 0.598400
vt 0.770300 0.435800
vt 0.764900 0.422200
vt 0.767300 0.408500
vt 0.921500 0.593200
vt 0.780600 0.659700
vt 0.780400 0.623800
vt 0.775000 0.636700
vt 0.785300 0.606400
vt 0.753000 0.400300
vt 0.905600 0.587300
vt 0.774800 0.646600
vt 0.776400 0.609500
vt 0.763500 0.629800
vt 0.746300 0.588600
vt 0.745400 0.596900
vt 0.892600 0.579500
vt 0.905500 0.570400
vt 0.770500 0.664300
vt 0.757800 0.651200
vt 0.762500 0.640400
vt 0.734600 0.584100
vt 0.735200 0.597900
vt 0.766000 0.616400
vt 0.894300 0.595600
vt 0.893500 0.567700
vt 0.726700 0.577300
vt 0.722300 0.601500
vt 0.721200 0.587600
vt 0.752500 0.441700
vt 0.754700 0.457900
vt 0.878700 0.575000
vt 0.886800 0.548600
vt 0.879300 0.560600
vt 0.747000 0.641000
vt 0.737600 0.564400
vt 0.751400 0.615100
vt 0.740300 0.471900
vt 0.743500 0.488800
vt 0.728400 0.480800
vt 0.725500 0.499000
vt 0.714000 0.487300
vt 0.713700 0.471600
vt 0.774900 0.511000
vt 0.769400 0.489400
vt 0.794600 0.527000
vt 0.838600 0.469200
vt 0.829600 0.462500
vt 0.847400 0.461700
vt 0.876300 0.437800
vt 0.765600 0.528700
vt 0.881100 0.416700
vt 0.756300 0.477300
vt 0.789300 0.518100
vt 0.858900 0.461400
vt 0.869900 0.485000
vt 0.859100 0.472700
vt 0.847100 0.471300
vt 0.878600 0.448700
vt 0.884400 0.428200
vt 0.756100 0.535900
vt 0.752600 0.525200
vt 0.743600 0.544800
vt 0.724600 0.554000
vt 0.759700 0.503100
vt 0.751600 0.491700
vt 0.872300 0.461800
vt 0.886100 0.440400
vt 0.893400 0.418000
vt 0.728700 0.536100
vt 0.758800 0.514300
vt 0.764800 0.524100
vt 0.878300 0.471100
vt 0.895100 0.434000
vt 0.741400 0.530000
vt 0.710200 0.543400
vt 0.885600 0.459400
vt 0.900500 0.428400
vt 0.904100 0.414000
vt 0.912700 0.425500
vt 0.725800 0.514300
vt 0.742400 0.508800
vt 0.751400 0.522600
vt 0.891500 0.472200
vt 0.895900 0.448000
vt 0.903700 0.437600
vt 0.918400 0.422200
vt 0.913800 0.403700
vt 0.713500 0.528400
vt 0.741000 0.520900
vt 0.905300 0.463000
vt 0.901800 0.472900
vt 0.907800 0.450000
vt 0.915600 0.438400
vt 0.930300 0.407300
vt 0.736300 0.525700
vt 0.907900 0.470300
vt 0.934600 0.422700
vt 0.698200 0.531400
vt 0.919300 0.450200
vt 0.924600 0.438200
vt 0.945800 0.405200
vt 0.712400 0.504200
vt 0.924400 0.469800
vt 0.954600 0.419300
vt 0.705600 0.516500
vt 0.720600 0.530600
vt 0.934900 0.452800
vt 0.699800 0.497400
vt 0.826100 0.548600
vt 0.832200 0.562700
vt 0.811100 0.558700
vt 0.810700 0.537000
vt 0.947900 0.435700
vt 0.846100 0.549800
vt 0.851600 0.569700
vt 0.864700 0.550100
vt 0.825700 0.531100
vt 0.819600 0.515300
vt 0.836100 0.514300
vt 0.827500 0.497700
vt 0.846700 0.500500
vt 0.844300 0.536500
vt 0.834400 0.527500
vt 0.843000 0.524400
vt 0.845500 0.527200
vt 0.730500 0.428700
vt 0.743600 0.449600
vt 0.728900 0.441300
vt 0.719800 0.419000
vt 0.726500 0.448000
vt 0.710100 0.433800
vt 0.710900 0.453700
vt 0.693000 0.431700
vt 0.691800 0.441100
vt 0.677000 0.442400
vt 0.695500 0.478000
vt 0.693000 0.457400
vt 0.726600 0.405100
vt 0.879600 0.589400
vt 0.989600 0.585300
vt 0.997000 0.596300
vt 0.982300 0.599100
vt 0.708800 0.593700
vt 0.693400 0.579600
vt 0.867400 0.583000
vt 0.870400 0.566100
vt 0.996900 0.606000
vt 0.974500 0.588800
vt 0.739200 0.627500
vt 0.711000 0.578200
vt 0.709800 0.560000
vt 0.691500 0.598100
vt 0.866500 0.598200
vt 0.989000 0.611400
vt 0.967800 0.602800
vt 0.693800 0.565700
vt 0.855700 0.590500
vt 0.851600 0.570700
vt 0.990000 0.621800
vt 0.964000 0.615700
vt 0.958500 0.592200
vt 0.711000 0.441100
vt 0.706500 0.419900
vt 0.852300 0.575100
vt 0.976700 0.614100
vt 0.955800 0.604000
vt 0.682000 0.590900
vt 0.683000 0.583500
vt 0.843600 0.602500
vt 0.846500 0.586200
vt 0.971400 0.625000
vt 0.677900 0.573000
vt 0.695000 0.549400
vt 0.839800 0.593400
vt 0.840300 0.582000
vt 0.831900 0.568200
vt 0.971300 0.633900
vt 0.959200 0.620200
vt 0.949100 0.606900
vt 0.947400 0.616900
vt 0.940000 0.614400
vt 0.962700 0.631500
vt 0.953600 0.626000
vt 0.679100 0.555200
vt 0.828700 0.598100
vt 0.932700 0.567700
vt 0.915400 0.556100
vt 0.926000 0.551700
vt 0.826300 0.587000
vt 0.984600 0.640800
vt 0.965600 0.644700
vt 0.955600 0.639800
vt 0.944200 0.634700
vt 0.933400 0.634300
vt 0.921900 0.617700
vt 0.682700 0.538100
vt 0.680600 0.451400
vt 0.998000 0.655300
vt 0.980300 0.656600
vt 0.906300 0.507800
vt 0.917300 0.524600
vt 0.907800 0.518400
vt 0.918500 0.633900
vt 0.676200 0.466100
vt 0.913900 0.541300
vt 0.930300 0.539700
vt 0.953200 0.646000
vt 0.902300 0.525200
vt 0.892800 0.511100
vt 0.840400 0.481500
vt 0.856900 0.487700
vt 0.667300 0.543800
vt 0.962200 0.401600
vt 0.667000 0.451100
vt 0.906400 0.545400
vt 0.896100 0.532400
vt 0.886900 0.528900
vt 0.925800 0.648600
vt 0.677600 0.490200
vt 0.888400 0.547000
vt 0.866100 0.502000
vt 0.871500 0.535300
vt 0.870000 0.519500
vt 0.855500 0.513600
vt 0.860700 0.534900
vt 0.849900 0.524600
s 1
f 1/1/1 2/2/2 3/3/3
f 4/4/4 2/2/2 1/1/1
f 5/5/5 6/6/6 2/2/2
f 5/5/5 2/2/2 4/4/4
f 4/7/4 7/8/7 5/9/5
f 7/10/7 4/11/4 8/12/8
f 9/13/9 5/9/5 7/8/7
f 10/14/10 7/10/7 8/12/8
f 4/4/4 1/1/1 11/15/11
f 11/16/11 1/17/1 12/18/12
f 13/19/13 14/20/14 15/21/15
f 4/11/4 11/22/11 8/12/8
f 16/23/16 8/24/8 11/25/11
f 14/26/14 16/27/16 11/16/11
f 15/28/15 17/29/17 18/30/18
f 13/31/13 16/27/16 14/26/14
f 14/20/14 17/32/17 15/21/15
f 13/33/13 19/34/19 16/23/16
f 20/35/20 19/34/19 13/33/13
f 21/36/21 13/19/13 15/21/15
f 10/37/10 8/24/8 16/23/16
f 19/34/19 10/37/10 16/23/16
f 15/28/15 18/30/18 22/38/22
f 23/39/23 21/36/21 24/40/24
f 20/35/20 13/33/13 21/41/21
f 23/39/23 25/42/25 21/36/21
f 24/43/24 26/44/26 23/45/23
f 26/44/26 25/46/25 23/45/23
f 27/47/27 26/44/26 24/43/24
f 28/48/28 15/28/15 22/38/22
f 21/36/21 15/21/15 28/49/28
f 29/50/29 20/35/20 21/41/21
s 0
f 30/51/30 21/41/21 25/52/25
s 1
f 24/40/24 21/36/21 28/49/28
s 0
f 30/53/31 25/46/25 31/54/32
s 1
f 31/54/32 25/46/25 26/44/26
f 24/43/24 28/48/28 27/47/27
f 29/50/29 21/41/21 30/51/30
s 0
f 32/55/33 31/54/32 26/44/26
s 1
f 28/48/28 26/44/26 27/47/27
f 33/56/34 34/57/35 35/58/36
f 3/3/3 2/2/2 6/6/6
f 3/59/3 12/60/12 1/61/1
f 3/3/3 6/6/6 36/62/37
f 36/63/37 37/64/38 38/65/39
f 3/66/3 36/63/37 38/65/39
f 3/59/3 38/67/39 39/68/40
f 38/65/39 37/64/38 40/69/41
f 41/70/42 42/71/43 43/72/44
f 42/71/43 11/16/11 43/72/44
f 12/18/12 43/72/44 11/16/11
f 43/73/44 12/60/12 44/74/45
f 14/75/14 42/76/43 45/77/46
f 14/26/14 11/16/11 42/71/43
f 44/74/45 39/68/40 46/78/47
f 17/79/17 14/75/14 45/77/46
f 18/80/18 17/79/17 45/77/46
f 18/80/18 45/77/46 47/81/48
f 46/82/47 48/83/49 47/84/48
f 44/74/45 12/60/12 39/68/40
f 46/78/47 39/68/40 49/85/50
f 47/84/48 48/83/49 18/86/18
f 12/60/12 3/59/3 39/68/40
f 46/82/47 49/87/50 48/83/49
f 50/88/51 18/89/18 48/90/49
f 50/88/51 48/90/49 51/91/52
f 48/90/49 49/92/50 51/91/52
f 52/93/53 33/56/34 35/58/36
f 35/58/36 34/57/35 53/94/54
f 33/56/34 52/93/53 34/57/35
f 53/94/54 52/93/53 35/58/36
f 34/57/35 41/70/42 53/94/54
f 54/95/55 52/96/53 55/97/56
f 34/57/35 52/93/53 41/70/42
f 52/96/53 53/98/54 55/97/56
f 55/97/56 53/98/54 56/99/57
f 57/100/58 54/95/59 58/101/60
f 56/99/57 58/101/60 55/97/56
f 53/94/54 41/70/42 59/102/61
s 0
f 58/101/62 54/95/59 55/97/56
s 1
f 59/103/61 41/104/42 60/105/63
s 0
f 56/106/64 53/94/54 59/102/61
s 1
f 61/107/65 56/108/57 59/109/61
f 59/109/61 60/110/63 61/107/65
f 42/71/43 41/70/42 52/93/53
s 0
f 45/77/46 52/96/53 54/95/59
s 1
f 57/100/58 45/77/46 54/95/59
f 57/100/58 58/101/60 56/99/57
f 57/111/58 56/108/57 61/107/65
s 0
f 45/112/46 42/71/43 52/93/53
s 1
f 43/73/44 44/74/45 41/104/42
f 60/105/63 44/74/45 46/78/47
f 41/104/42 44/74/45 60/105/63
f 61/107/65 60/110/63 57/111/58
f 60/110/63 46/82/47 47/84/48
f 47/81/48 45/77/46 57/100/58
f 47/84/48 57/111/58 60/110/63
f 62/113/66 9/13/9 7/8/7
f 62/114/66 7/10/7 10/14/10
f 63/115/67 9/13/9 62/113/66
f 63/116/67 62/117/66 64/118/68
f 65/119/69 64/118/68 62/117/66
f 66/120/70 65/121/69 62/122/66
f 67/123/71 10/37/10 19/34/19
f 22/38/22 18/30/18 68/124/72
f 68/124/72 69/125/73 22/38/22
f 67/126/71 19/127/19 69/128/73
f 70/129/74 65/121/69 66/120/70
f 66/130/70 10/131/10 67/126/71
f 62/114/66 10/14/10 66/132/70
f 68/133/72 18/134/18 50/135/51
f 66/130/70 67/126/71 69/128/73
f 68/136/72 66/130/70 69/128/73
f 71/137/75 66/120/70 68/138/72
f 68/133/72 50/135/51 72/139/76
f 69/128/73 19/127/19 20/140/20
f 22/141/22 69/128/73 73/142/77
f 28/48/28 22/38/22 73/143/77
f 20/140/20 29/144/29 73/142/77
f 20/140/20 73/142/77 69/128/73
f 73/142/77 29/144/29 31/145/32
f 74/146/78 73/143/77 31/54/32
f 31/145/32 29/144/29 30/147/30
f 74/146/78 31/54/32 32/55/33
f 26/44/26 28/48/28 74/146/78
s 0
f 74/146/78 32/55/33 26/44/26
s 1
f 28/48/28 73/143/77 74/146/78
f 38/148/39 40/149/41 65/119/69
f 75/150/79 38/67/39 65/151/69
f 40/149/41 37/152/38 64/118/68
f 37/152/38 63/116/67 64/118/68
f 40/149/41 64/118/68 65/119/69
f 39/68/40 38/67/39 75/150/79
f 49/85/50 39/68/40 75/150/79
f 75/150/79 65/151/69 70/153/74
f 70/129/74 66/120/70 76/154/80
f 76/154/80 66/120/70 71/137/75
f 77/155/81 68/133/72 72/139/76
f 49/85/50 75/150/79 78/156/82
f 75/150/79 79/157/83 78/156/82
f 72/158/76 50/88/51 51/91/52
f 79/159/83 70/129/74 76/154/80
f 79/157/83 75/150/79 70/153/74
f 71/160/75 68/133/72 77/155/81
f 49/92/50 78/161/82 51/91/52
f 80/162/84 51/91/52 78/161/82
f 72/158/76 51/91/52 80/162/84
f 77/155/81 72/139/76 80/163/84
f 76/154/80 71/137/75 77/164/81
f 79/159/83 76/154/80 81/165/85
f 77/164/81 81/165/85 76/154/80
f 82/166/86 77/155/81 80/163/84
f 78/156/82 79/157/83 83/167/87
f 80/162/84 78/161/82 83/168/87
s 0
f 84/169/88 82/166/86 80/163/84
s 1
f 80/162/84 83/168/87 84/170/88
f 84/170/88 83/168/87 85/171/89
f 84/170/88 85/171/89 86/172/90
f 79/157/83 81/173/85 83/167/87
f 83/167/87 81/173/85 87/174/91
s 0
f 88/175/92 82/166/86 84/169/88
s 1
f 88/176/92 84/170/88 86/172/90
f 88/176/92 86/172/90 89/177/93
f 86/172/90 85/171/89 89/177/93
s 0
f 87/178/94 81/165/85 77/164/81
s 1
f 87/179/91 77/155/81 82/166/86
f 90/180/95 87/179/91 82/166/86
f 90/181/95 91/182/96 87/174/91
f 83/167/87 87/174/91 91/182/96
f 90/180/95 82/166/86 88/175/92
f 90/180/95 88/175/92 89/183/93
s 0
f 85/184/89 90/181/95 89/185/93
f 83/167/87 91/182/97 85/184/89
f 91/182/98 90/181/99 85/184/100
s 1
f 92/186/101 93/187/102 94/188/103
f 95/189/104 92/186/101 94/188/103
f 96/190/105 94/188/103 97/191/106
f 92/186/101 98/192/107 99/193/108
f 100/194/109 92/186/101 95/189/104
f 92/186/101 99/193/108 93/187/102
f 101/195/110 95/189/104 94/188/103
f 102/196/111 101/195/110 96/190/105
f 96/190/105 101/195/110 94/188/103
f 96/190/105 97/191/106 103/197/112
f 99/198/108 98/199/107 104/200/113
f 105/201/114 106/202/115 98/199/107
f 100/194/109 105/203/114 98/192/107
f 100/194/109 98/192/107 92/186/101
f 107/204/116 100/194/109 95/189/104
f 107/204/116 95/189/104 101/195/110
f 108/205/117 107/204/116 101/195/110
f 102/196/111 108/205/117 101/195/110
f 109/206/118 102/196/111 96/190/105
f 103/197/112 109/206/118 96/190/105
f 98/199/107 110/207/119 104/200/113
f 104/200/113 110/207/119 111/208/120
f 106/202/115 110/207/119 98/199/107
f 107/204/116 112/209/121 100/194/109
f 113/210/122 107/204/116 114/211/123
f 114/211/123 107/204/116 108/205/117
f 115/212/124 108/205/117 102/196/111
f 115/212/124 102/196/111 109/206/118
f 116/213/125 115/214/124 109/215/118
f 117/216/126 109/217/118 103/218/112
f 116/213/125 109/215/118 117/219/126
f 106/202/115 118/220/127 110/207/119
f 119/221/128 106/202/115 105/201/114
f 112/222/121 119/221/128 105/201/114
f 112/209/121 105/203/114 100/194/109
f 120/223/129 121/224/130 122/225/131
f 122/225/131 112/209/121 113/210/122
f 122/225/131 121/224/130 112/209/121
f 123/226/132 122/225/131 113/210/122
f 112/209/121 107/204/116 113/210/122
f 123/226/132 113/210/122 114/211/123
f 124/227/133 114/211/123 108/205/117
f 125/228/134 115/214/124 116/213/125
f 126/229/135 110/207/119 118/220/127
f 110/207/119 126/229/135 111/208/120
f 106/202/115 119/221/128 118/220/127
f 120/230/129 127/231/136 121/232/130
f 121/232/130 119/221/128 112/222/121
f 128/233/137 120/223/129 122/225/131
f 122/225/131 123/226/132 128/233/137
f 129/234/138 123/226/132 114/211/123
f 129/234/138 114/211/123 124/227/133
f 124/227/133 108/205/117 115/212/124
f 130/235/139 126/229/135 118/220/127
f 131/236/140 119/221/128 127/231/136
f 119/221/128 131/236/140 130/235/139
f 130/235/139 118/220/127 119/221/128
f 132/237/141 127/231/136 120/230/129
f 133/238/142 128/233/137 123/226/132
f 129/234/138 133/238/142 123/226/132
f 125/228/134 124/239/133 115/214/124
f 134/240/143 124/239/133 125/228/134
f 125/228/134 116/213/125 117/219/126
f 131/236/140 127/231/136 135/241/144
f 131/236/140 135/241/144 136/242/145
f 126/229/135 130/235/139 137/243/146
f 111/208/120 126/229/135 138/244/147
f 138/244/147 126/229/135 137/243/146
f 132/237/141 135/241/144 127/231/136
f 132/245/141 120/223/129 128/233/137
f 139/246/148 132/245/141 128/233/137
f 140/247/149 128/233/137 133/238/142
f 139/246/148 128/233/137 140/247/149
f 141/248/150 140/249/149 133/250/142
f 142/251/151 133/250/142 129/252/138
f 143/253/152 129/254/138 124/239/133
f 142/255/151 129/254/138 143/253/152
f 134/240/143 143/253/152 124/239/133
f 144/256/153 125/228/134 117/219/126
f 145/257/154 125/228/134 144/256/153
f 135/241/144 146/258/155 136/242/145
f 131/236/140 136/242/145 147/259/156
f 148/260/157 146/258/155 132/237/141
f 146/258/155 135/241/144 132/237/141
f 131/236/140 147/259/156 130/235/139
f 149/261/158 148/260/157 132/237/141
f 132/245/141 139/246/148 149/262/158
f 142/251/151 141/248/150 133/250/142
f 134/240/143 125/228/134 145/257/154
f 136/242/145 146/258/155 150/263/159
f 147/259/156 136/242/145 150/263/159
f 137/243/146 151/264/160 138/244/147
f 130/235/139 147/259/156 152/265/161
f 137/243/146 130/235/139 152/265/161
f 153/266/162 154/267/163 149/261/158
f 154/267/163 148/260/157 149/261/158
f 155/268/164 149/262/158 139/246/148
f 140/247/149 155/268/164 139/246/148
f 156/269/165 142/255/151 143/253/152
f 157/270/166 156/269/165 143/253/152
f 157/270/166 143/253/152 134/240/143
f 158/271/167 157/270/166 134/240/143
f 158/271/167 134/240/143 145/257/154
f 147/259/156 150/263/159 159/272/168
f 153/266/162 160/273/169 154/267/163
f 146/258/155 148/260/157 150/263/159
f 148/260/157 161/274/170 150/263/159
f 147/259/156 159/272/168 152/265/161
f 137/243/146 152/265/161 151/264/160
f 151/264/160 162/275/171 138/244/147
f 160/273/169 153/266/162 163/276/172
f 164/277/173 163/278/172 153/279/162
f 153/279/162 149/262/158 155/268/164
f 164/277/173 153/279/162 165/280/174
f 153/279/162 155/268/164 165/280/174
f 166/281/175 155/282/164 140/249/149
f 167/283/176 140/249/149 141/248/150
f 168/284/177 167/283/176 141/248/150
f 168/284/177 141/248/150 142/251/151
f 168/285/177 142/255/151 156/269/165
f 169/286/178 168/285/177 156/269/165
f 169/286/178 156/269/165 157/270/166
f 157/270/166 158/271/167 169/286/178
f 170/287/179 158/271/167 145/257/154
f 170/287/179 145/257/154 144/256/153
f 171/288/180 172/289/181 150/263/159
f 172/289/181 159/272/168 150/263/159
f 173/290/182 160/273/169 163/276/172
f 154/267/163 174/291/183 148/260/157
f 154/267/163 160/273/169 174/291/183
f 148/260/157 174/291/183 161/274/170
f 150/263/159 161/274/170 175/292/184
f 176/293/185 159/272/168 172/289/181
f 159/272/168 176/293/185 152/265/161
f 152/265/161 176/293/185 151/264/160
f 162/275/171 151/264/160 177/294/186
f 151/264/160 178/295/187 177/294/186
f 179/296/188 165/297/174 155/282/164
f 179/296/188 164/298/173 165/297/174
f 179/296/188 155/282/164 166/281/175
f 167/283/176 179/296/188 166/281/175
f 167/283/176 166/281/175 140/249/149
f 180/299/189 167/283/176 168/284/177
f 181/300/190 158/271/167 170/287/179
f 169/286/178 158/271/167 182/301/191
f 183/302/192 184/303/193 185/304/194
f 184/303/193 183/302/192 186/305/195
f 187/306/196 184/307/193 186/308/195
f 188/309/197 187/310/196 186/311/195
f 188/309/197 186/311/195 189/312/198
f 190/313/199 183/302/192 191/314/200
f 186/305/195 183/302/192 190/313/199
f 186/305/195 190/313/199 192/315/201
f 193/316/202 186/311/195 192/317/201
f 189/312/198 186/311/195 193/316/202
f 190/313/199 194/318/203 192/315/201
f 195/319/204 196/320/205 197/321/206
f 198/322/207 195/319/204 199/323/208
f 184/307/193 187/306/196 200/324/209
f 185/325/194 184/307/193 201/326/210
f 201/326/210 184/307/193 200/324/209
f 200/327/209 188/328/197 202/329/211
f 185/325/194 201/326/210 203/330/212
f 201/326/210 200/324/209 204/331/213
f 204/332/213 200/327/209 202/329/211
f 203/330/212 201/326/210 204/331/213
f 200/327/209 187/333/196 188/328/197
f 93/187/102 185/325/194 203/330/212
f 93/187/102 203/330/212 205/334/214
f 204/332/213 202/329/211 206/335/215
f 205/334/214 203/330/212 207/336/216
f 207/336/216 203/330/212 204/331/213
f 93/187/102 205/334/214 94/188/103
f 94/188/103 205/334/214 97/191/106
f 205/334/214 208/337/217 97/191/106
f 191/314/200 183/302/192 185/304/194
f 191/314/200 185/304/194 93/338/102
f 99/198/108 191/314/200 93/338/102
f 202/329/211 188/328/197 209/339/218
f 188/309/197 189/312/198 209/340/218
f 202/329/211 209/339/218 206/335/215
f 206/335/215 207/341/216 204/332/213
f 208/337/217 205/334/214 207/336/216
f 210/342/219 207/341/216 206/335/215
f 208/343/217 207/341/216 210/342/219
f 208/343/217 210/342/219 211/344/220
f 103/197/112 97/191/106 208/337/217
f 104/200/113 191/314/200 99/198/108
f 212/345/221 210/342/219 206/335/215
f 103/218/112 208/343/217 211/344/220
f 190/313/199 191/314/200 104/200/113
f 209/340/218 189/312/198 213/346/222
f 213/346/222 189/312/198 193/316/202
f 209/339/218 213/347/222 206/335/215
f 214/348/223 212/345/221 206/335/215
f 210/342/219 212/345/221 215/349/224
f 216/350/225 210/342/219 215/349/224
f 210/342/219 216/350/225 211/344/220
f 211/344/220 117/216/126 103/218/112
f 104/200/113 111/208/120 217/351/226
f 190/313/199 104/200/113 194/318/203
f 213/346/222 193/316/202 218/352/227
f 206/335/215 213/347/222 214/348/223
f 218/353/227 214/348/223 213/347/222
f 214/348/223 218/353/227 219/354/228
f 212/345/221 214/348/223 219/354/228
f 219/354/228 218/353/227 220/355/229
f 219/354/228 220/355/229 221/356/230
f 215/349/224 212/345/221 219/354/228
f 215/349/224 219/354/228 221/356/230
f 215/349/224 222/357/231 216/350/225
f 216/350/225 222/357/231 223/358/232
f 223/358/232 117/216/126 211/344/220
f 211/344/220 216/350/225 223/358/232
f 104/200/113 217/351/226 194/318/203
f 224/359/233 192/315/201 194/318/203
f 218/352/227 193/316/202 192/317/201
f 218/352/227 192/317/201 224/360/233
s 0
f 225/361/234 218/352/227 224/360/233
s 1
f 225/361/235 224/360/233 226/362/236
f 220/363/229 218/352/227 225/361/235
f 227/364/237 215/349/224 228/365/238
f 215/349/224 227/364/237 222/357/231
f 111/208/120 138/244/147 217/351/226
f 224/359/233 194/318/203 217/351/226
f 224/359/233 217/351/226 229/366/239
f 220/363/229 225/361/235 230/367/240
f 221/356/230 220/355/229 230/368/240
f 221/356/230 230/368/240 231/369/241
f 221/356/230 231/369/241 232/370/242
f 232/370/242 215/349/224 221/356/230
f 223/358/232 222/357/231 233/371/243
f 144/256/153 117/219/126 233/372/243
f 233/371/243 117/216/126 223/358/232
f 217/351/226 234/373/244 229/366/239
f 235/374/245 236/375/246 229/366/239
f 224/359/233 229/366/239 236/375/246
f 226/362/236 224/360/233 236/376/246
f 225/361/235 226/362/236 236/376/246
f 225/361/235 236/376/246 230/367/240
f 231/369/241 230/368/240 237/377/247
f 232/370/242 231/369/241 238/378/248
f 238/378/248 231/369/241 239/379/249
f 227/364/237 228/365/238 232/370/242
f 227/364/237 232/370/242 238/378/248
f 227/364/237 240/380/250 222/357/231
f 240/380/250 233/371/243 222/357/231
f 217/351/226 138/244/147 234/373/244
f 234/373/244 235/374/245 229/366/239
f 235/374/245 241/381/251 236/375/246
f 236/376/246 241/382/251 230/367/240
f 231/369/241 237/377/247 242/383/252
f 231/369/241 242/383/252 239/379/249
f 243/384/253 227/364/237 238/378/248
f 244/385/254 238/378/248 239/379/249
f 245/386/255 144/256/153 233/372/243
f 240/387/250 245/386/255 233/372/243
f 241/381/251 235/374/245 195/319/204
f 230/367/240 241/382/251 246/388/256
f 230/367/240 246/388/256 237/389/247
f 242/383/252 237/377/247 247/390/257
f 242/383/252 247/390/257 248/391/258
f 242/383/252 248/391/258 249/392/259
f 239/379/249 242/383/252 249/392/259
f 239/379/249 249/392/259 244/385/254
f 245/386/255 170/287/179 144/256/153
f 250/393/260 245/386/255 240/387/250
f 240/380/250 227/364/237 243/384/253
f 250/393/260 240/387/250 243/394/253
f 251/395/261 243/384/253 238/378/248
f 251/395/261 238/378/248 244/385/254
f 235/374/245 234/373/244 196/320/205
f 235/374/245 196/320/205 195/319/204
f 195/319/204 198/322/207 241/381/251
f 234/373/244 138/244/147 162/275/171
f 246/388/256 241/382/251 198/396/207
f 237/389/247 246/388/256 247/397/257
f 250/393/260 252/398/262 245/386/255
f 251/399/261 253/400/263 243/394/253
f 162/275/171 254/401/264 234/373/244
f 234/373/244 254/401/264 196/320/205
f 162/275/171 255/402/265 254/401/264
f 246/388/256 256/403/266 247/397/257
f 248/404/258 247/397/257 257/405/267
f 249/392/259 248/391/258 258/406/268
f 258/406/268 244/385/254 249/392/259
f 181/300/190 170/287/179 259/407/269
f 170/287/179 245/386/255 252/398/262
f 250/393/260 243/394/253 253/400/263
f 260/408/270 251/395/261 244/385/254
f 261/409/271 262/410/272 263/411/273
f 262/410/272 264/412/274 263/411/273
f 263/411/273 265/413/275 266/414/276
f 172/289/181 171/288/180 267/415/277
f 172/289/181 267/415/277 268/416/278
f 172/289/181 268/416/278 176/293/185
f 174/291/183 160/273/169 173/290/182
f 269/417/279 174/291/183 173/290/182
f 174/291/183 175/292/184 161/274/170
f 171/288/180 150/263/159 175/292/184
f 151/264/160 176/293/185 178/295/187
f 175/292/184 174/291/183 269/417/279
f 173/418/182 163/419/172 164/298/173
f 270/420/280 173/418/182 164/298/173
f 179/296/188 270/420/280 164/298/173
f 271/421/281 179/296/188 167/283/176
f 272/422/282 168/285/177 169/286/178
f 180/299/189 168/284/177 272/423/282
f 182/301/191 158/271/167 181/300/190
f 176/293/185 268/416/278 273/424/283
f 274/425/284 171/288/180 175/292/184
f 267/415/277 171/288/180 274/425/284
f 176/293/185 273/424/283 178/295/187
f 274/425/284 175/292/184 269/417/279
f 275/426/285 267/427/277 274/428/284
f 177/294/186 178/295/187 255/402/265
f 269/429/279 173/418/182 270/420/280
f 275/426/285 269/429/279 270/420/280
f 179/296/188 275/426/285 270/420/280
f 276/430/286 275/426/285 179/296/188
f 271/421/281 167/283/176 180/299/189
f 277/431/287 180/299/189 272/423/282
f 278/432/288 272/422/282 169/286/178
f 279/433/289 272/422/282 278/432/288
f 278/432/288 169/286/178 182/301/191
f 280/434/290 278/432/288 182/301/191
f 182/301/191 181/300/190 280/434/290
f 280/434/290 181/300/190 259/407/269
f 280/434/290 259/407/269 281/435/291
f 267/415/277 282/436/292 268/416/278
f 268/416/278 282/436/292 283/437/293
f 268/416/278 283/437/293 273/424/283
f 273/424/283 255/402/265 178/295/187
f 284/438/294 267/427/277 275/426/285
f 284/438/294 275/426/285 276/430/286
f 271/421/281 276/430/286 179/296/188
f 277/431/287 271/421/281 180/299/189
f 285/439/295 271/421/281 277/431/287
f 277/431/287 272/423/282 279/440/289
f 280/434/290 279/433/289 278/432/288
f 286/441/296 280/434/290 281/435/291
f 283/437/293 262/410/272 273/424/283
f 273/424/283 262/410/272 261/409/271
f 255/402/265 273/424/283 261/409/271
f 287/442/297 267/415/277 288/443/298
f 288/444/298 267/427/277 284/438/294
f 285/439/295 276/430/286 271/421/281
f 289/445/299 285/439/295 277/431/287
f 289/445/299 277/431/287 279/440/289
f 290/446/300 279/433/289 280/434/290
f 290/446/300 280/434/290 286/441/296
f 286/441/296 281/435/291 291/447/301
f 282/436/292 267/415/277 287/442/297
f 292/448/302 288/444/298 284/438/294
f 292/448/302 284/438/294 276/430/286
f 279/440/289 293/449/303 289/445/299
f 290/450/300 293/449/303 279/440/289
f 294/451/304 293/449/303 290/450/300
f 262/410/272 283/437/293 295/452/305
f 282/436/292 287/442/297 296/453/306
f 283/437/293 282/436/292 296/453/306
f 297/454/307 287/442/297 288/443/298
f 297/455/307 288/444/298 292/448/302
f 298/456/308 292/448/302 276/430/286
f 298/456/308 276/430/286 285/439/295
f 289/445/299 298/456/308 285/439/295
f 293/449/303 299/457/309 289/445/299
f 300/458/310 294/451/304 290/450/300
f 300/458/310 290/450/300 286/459/296
f 301/460/311 286/441/296 291/447/301
f 295/452/305 264/412/274 262/410/272
f 295/452/305 283/437/293 296/453/306
f 287/442/297 297/454/307 296/453/306
f 302/461/312 296/453/306 297/454/307
f 297/455/307 292/448/302 303/462/313
f 302/463/312 297/455/307 303/462/313
f 303/462/313 292/448/302 298/456/308
f 299/457/309 298/456/308 289/445/299
f 304/464/314 298/456/308 299/457/309
f 305/465/315 299/457/309 293/449/303
f 305/465/315 293/449/303 294/451/304
f 301/466/311 300/458/310 286/459/296
f 295/452/305 302/461/312 306/467/316
f 303/462/313 306/468/316 302/463/312
f 304/464/314 303/462/313 298/456/308
f 305/465/315 304/464/314 299/457/309
f 300/458/310 305/465/315 294/451/304
f 307/469/317 300/458/310 301/466/311
f 308/470/318 301/460/311 291/447/301
f 263/411/273 264/412/274 265/413/275
f 306/468/316 303/462/313 304/464/314
f 309/471/319 306/468/316 304/464/314
f 309/471/319 304/464/314 305/465/315
f 309/471/319 305/465/315 310/472/320
f 300/458/310 310/472/320 305/465/315
f 307/469/317 310/472/320 300/458/310
f 308/473/318 307/469/317 301/466/311
f 295/452/305 311/474/321 264/412/274
f 312/475/322 306/468/316 309/471/319
f 307/469/317 308/473/318 313/476/323
f 311/474/321 265/413/275 264/412/274
f 314/477/324 311/474/321 295/452/305
f 312/478/322 295/452/305 306/467/316
f 312/475/322 309/471/319 315/479/325
f 310/472/320 315/479/325 309/471/319
f 316/480/326 311/474/321 314/477/324
f 265/413/275 311/474/321 316/480/326
f 312/478/322 314/477/324 295/452/305
f 317/481/327 314/482/324 312/483/322
f 317/481/327 312/483/322 315/484/325
f 318/485/328 315/479/325 310/472/320
f 318/485/328 310/472/320 307/469/317
f 318/485/328 307/469/317 313/476/323
f 319/486/329 316/487/326 314/482/324
f 320/488/330 316/487/326 319/486/329
f 321/489/331 317/481/327 315/484/325
f 318/490/328 321/489/331 315/484/325
f 322/491/332 321/489/331 318/490/328
f 322/491/332 318/490/328 313/492/323
f 323/493/333 322/491/332 313/492/323
f 319/486/329 314/482/324 317/481/327
f 324/494/334 319/486/329 317/481/327
f 324/494/334 317/481/327 321/489/331
f 325/495/335 324/494/334 321/489/331
f 322/491/332 325/495/335 321/489/331
f 326/496/336 325/495/335 322/491/332
f 327/497/337 324/494/334 325/495/335
f 327/497/337 325/495/335 326/496/336
f 196/320/205 254/401/264 197/321/206
f 199/323/208 195/319/204 328/498/338
f 329/499/339 197/321/206 254/401/264
f 195/319/204 197/321/206 328/498/338
f 197/321/206 329/499/339 330/500/340
f 328/498/338 197/321/206 330/500/340
f 328/498/338 331/501/341 199/323/208
f 329/499/339 261/409/271 332/502/342
f 331/501/341 328/498/338 333/503/343
f 328/498/338 330/500/340 333/503/343
f 332/502/342 261/409/271 266/414/276
f 266/414/276 261/409/271 263/411/273
f 332/502/342 266/414/276 334/504/344
f 335/505/345 336/506/346 337/507/347
f 266/414/276 265/413/275 338/508/348
f 339/509/349 266/414/276 338/508/348
f 254/401/264 255/402/265 329/499/339
f 198/322/207 199/323/208 340/510/350
f 198/396/207 340/511/350 246/388/256
f 246/388/256 340/511/350 256/403/266
f 255/402/265 162/275/171 177/294/186
f 257/405/267 247/397/257 256/403/266
f 248/512/258 257/513/267 341/514/351
f 259/407/269 170/287/179 252/398/262
f 252/398/262 250/393/260 253/400/263
f 260/515/270 253/400/263 251/399/261
f 342/516/352 253/400/263 260/515/270
f 340/510/350 199/323/208 331/501/341
f 340/511/350 343/517/353 256/403/266
f 257/405/267 256/403/266 344/518/354
f 257/513/267 344/519/354 341/514/351
f 258/520/268 248/512/258 341/514/351
f 345/521/355 244/385/254 258/406/268
f 346/522/356 252/398/262 253/400/263
f 342/516/352 346/522/356 253/400/263
f 345/521/355 260/408/270 244/385/254
f 281/435/291 259/407/269 252/398/262
f 281/435/291 252/398/262 347/523/357
f 260/515/270 345/524/355 342/516/352
f 329/499/339 332/502/342 330/500/340
f 340/511/350 331/525/341 343/517/353
f 256/403/266 343/517/353 344/518/354
f 341/514/351 344/519/354 348/526/358
f 341/514/351 349/527/359 258/520/268
f 252/398/262 346/522/356 350/528/360
f 255/402/265 261/409/271 329/499/339
f 343/517/353 331/525/341 351/529/361
f 344/518/354 343/517/353 352/530/362
f 344/519/354 352/531/362 348/526/358
f 341/514/351 353/532/363 349/527/359
f 258/520/268 349/527/359 345/533/355
f 291/447/301 281/435/291 347/523/357
f 350/528/360 347/523/357 252/398/262
f 330/500/340 332/502/342 333/503/343
f 333/503/343 332/502/342 354/534/364
f 331/501/341 333/503/343 351/535/361
f 343/517/353 351/529/361 355/536/365
f 343/517/353 355/536/365 352/530/362
f 341/514/351 348/526/358 356/537/366
f 341/514/351 356/537/366 353/532/363
f 345/533/355 349/527/359 357/538/367
f 342/516/352 345/524/355 357/539/367
f 358/540/368 342/516/352 357/539/367
f 350/528/360 346/522/356 342/516/352
f 332/502/342 334/504/344 354/534/364
f 333/503/343 335/505/345 351/535/361
f 351/529/361 335/541/345 359/542/369
f 355/536/365 351/529/361 359/542/369
f 348/526/358 352/531/362 356/537/366
f 352/531/362 360/543/370 356/537/366
f 349/527/359 353/532/363 357/538/367
f 358/540/368 361/544/371 342/516/352
f 361/544/371 350/528/360 342/516/352
f 362/545/372 291/447/301 347/523/357
f 333/503/343 354/534/364 336/506/346
f 333/503/343 336/506/346 335/505/345
f 359/542/369 335/541/345 363/546/373
f 359/542/369 363/546/373 364/547/374
f 355/536/365 359/542/369 364/547/374
f 365/548/375 352/530/362 355/536/365
f 366/549/376 360/543/370 352/531/362
f 356/537/366 360/543/370 353/532/363
f 353/532/363 360/543/370 367/550/377
f 353/532/363 367/550/377 357/538/367
f 367/550/377 358/551/368 357/538/367
f 367/550/377 368/552/378 358/551/368
f 358/551/368 368/552/378 361/553/371
f 362/545/372 347/523/357 350/528/360
f 354/534/364 334/504/344 339/509/349
f 354/534/364 339/509/349 336/506/346
f 365/548/375 355/536/365 364/547/374
f 367/550/377 360/543/370 369/554/379
f 367/550/377 369/554/379 370/555/380
f 368/552/378 367/550/377 370/555/380
f 350/528/360 361/544/371 371/556/381
f 362/545/372 308/470/318 291/447/301
f 350/528/360 371/556/381 362/545/372
f 334/504/344 266/414/276 339/509/349
f 363/546/373 335/541/345 372/557/382
f 335/558/345 337/559/347 372/560/382
f 363/546/373 372/557/382 373/561/383
f 364/547/374 363/546/373 373/561/383
f 364/547/374 373/561/383 365/548/375
f 352/531/362 365/562/375 366/549/376
f 366/549/376 369/554/379 360/543/370
f 369/554/379 366/549/376 374/563/384
f 366/549/376 365/562/375 374/563/384
f 369/554/379 375/564/385 370/555/380
f 370/555/380 361/553/371 368/552/378
f 370/555/380 376/565/386 361/553/371
f 361/553/371 377/566/387 371/567/381
f 378/568/388 308/470/318 362/545/372
f 371/556/381 378/568/388 362/545/372
f 336/506/346 339/509/349 379/569/389
f 337/507/347 336/506/346 379/569/389
f 365/562/375 373/570/383 380/571/390
f 365/562/375 380/571/390 374/563/384
f 374/572/384 380/573/390 381/574/391
f 375/564/385 369/554/379 374/563/384
f 370/555/380 375/564/385 376/565/386
f 376/565/386 377/566/387 361/553/371
f 377/566/387 382/575/392 371/567/381
f 339/509/349 338/508/348 383/576/393
f 372/560/382 384/577/394 373/578/383
f 373/578/383 384/577/394 380/573/390
f 374/563/384 385/579/395 375/564/385
f 386/580/396 385/581/395 374/572/384
f 381/574/391 386/580/396 374/572/384
f 375/564/385 385/579/395 376/565/386
f 376/565/386 385/579/395 377/566/387
f 323/493/333 313/492/323 378/582/388
f 382/583/392 323/493/333 378/582/388
f 382/584/392 378/568/388 371/556/381
f 378/585/388 313/476/323 308/473/318
f 265/413/275 316/480/326 338/508/348
f 379/569/389 339/509/349 383/576/393
f 337/507/347 379/569/389 387/586/397
f 387/586/397 379/569/389 383/576/393
f 384/577/394 372/560/382 337/559/347
f 387/587/397 384/577/394 337/559/347
f 380/573/390 386/580/396 381/574/391
f 388/588/398 389/589/399 385/581/395
f 386/580/396 388/588/398 385/581/395
f 390/590/400 382/575/392 377/566/387
f 338/508/348 316/480/326 320/591/330
f 388/588/398 383/592/393 389/589/399
f 388/588/398 387/587/397 383/592/393
f 384/577/394 387/587/397 386/580/396
f 386/580/396 387/587/397 388/588/398
f 386/580/396 380/573/390 384/577/394
f 377/566/387 385/579/395 390/590/400
f 390/593/400 323/493/333 382/583/392
f 338/508/348 320/591/330 383/576/393
f 383/592/393 320/488/330 391/594/401
f 383/592/393 391/594/401 389/589/399
f 389/589/399 391/594/401 392/595/402
f 385/581/395 389/589/399 392/595/402
f 385/581/395 392/595/402 390/593/400
f 323/493/333 393/596/403 322/491/332
f 390/593/400 392/595/402 393/596/403
f 390/593/400 393/596/403 323/493/333
f 394/597/404 320/488/330 319/486/329
f 324/494/334 394/597/404 319/486/329
f 391/594/401 320/488/330 394/597/404
f 395/598/405 394/597/404 324/494/334
f 392/595/402 391/594/401 394/597/404
f 395/598/405 324/494/334 327/497/337
f 394/597/404 395/598/405 393/596/403
f 392/595/402 394/597/404 393/596/403
f 395/598/405 326/496/336 322/491/332
f 393/596/403 395/598/405 322/491/332
f 327/497/337 326/496/336 395/598/405
f 121/232/130 127/231/136 119/221/128
f 232/370/242 228/365/238 215/349/224
f 275/426/285 274/428/284 269/429/279
f 295/452/305 296/453/306 302/461/312
